<svg width="1793" height="1264" viewBox="0 0 1793 1264" fill="none" xmlns="http://www.w3.org/2000/svg">
<g filter="url(#filter0_d_351_438)">
<rect x="441" y="1001.78" width="188.877" height="242.218" fill="#4BBB4B"/>
<rect x="431" y="991.778" width="208.877" height="262.218" stroke="black" stroke-width="20"/>
</g>
<g filter="url(#filter1_d_351_438)">
<rect x="1124" y="964" width="188.877" height="279.818" fill="#EC3F3F"/>
<rect x="1134" y="974" width="168.877" height="259.818" stroke="black" stroke-width="20"/>
</g>
<g filter="url(#filter2_d_351_438)">
<rect x="1574" y="261" width="188.877" height="982.862" fill="#4BBB4B"/>
<rect x="1584" y="271" width="168.877" height="962.862" stroke="black" stroke-width="20"/>
</g>
<g filter="url(#filter3_d_351_438)">
<rect x="1349" y="811" width="188.877" height="432.844" fill="#4BBB4B"/>
<rect x="1359" y="821" width="168.877" height="412.844" stroke="black" stroke-width="20"/>
</g>
<g filter="url(#filter4_d_351_438)">
<rect x="898.329" y="911.718" width="188.877" height="332.284" fill="#4BBB4B"/>
<rect x="908.329" y="921.718" width="168.877" height="312.284" stroke="black" stroke-width="20"/>
</g>
<g filter="url(#filter5_d_351_438)">
<rect x="673" y="1076" width="188.877" height="167.891" fill="#EC3F3F"/>
<rect x="683" y="1086" width="168.877" height="147.891" stroke="black" stroke-width="20"/>
</g>
<path d="M376.387 455.778C464.65 383.135 528.468 356.238 668.756 333.172C836.571 321.79 919.241 286.842 1036.57 149.263C1068.24 50.8487 1097.92 7.10599 1219.3 10.1481C1338.37 27.8322 1372.3 108.691 1443.3 149.263C1514.3 189.835 1497.53 284.838 1475.13 294.858C1463.93 299.866 1455.98 299.869 1450.82 298.618C1467.07 310.623 1442.58 333.172 1412 333.172C1377.81 333.172 1179.22 281.301 1179.22 281.301C1179.22 360.287 1168.73 389.01 1137.53 471.205C1137 481.86 1194.99 470.071 1235.71 481.86C1276.42 493.65 1278.33 521.331 1278.33 536.657C1278.33 546.185 1245.38 565.98 1219.72 576.452C1204.11 582.825 1191.2 585.745 1190.04 580.799C1187 567.724 1210.7 522.197 1195.37 522.197C1185.62 522.197 1132.21 540.989 1098.56 517.028C929.889 687.476 893.943 697.002 708.255 708.651C669.199 800.337 643.735 877.425 682.652 877.425C721.568 877.425 773.868 931.597 741.848 936.771C709.829 941.945 682.456 936.771 640.462 936.771C660.056 955.494 648.717 957.36 535.691 957.36H450.079C421.502 957.36 444.033 953.945 444.033 831.339C444.033 763.601 431.69 717.611 427.463 676.693C166.238 611.659 45.3118 569.419 18 455.778C82.1977 515.42 247.828 601.639 376.387 455.778Z" fill="black"/>
<path d="M427.463 676.693C166.238 611.659 45.3118 569.419 18 455.778C82.1977 515.42 247.828 601.639 376.387 455.778C464.65 383.135 528.468 356.238 668.756 333.172C836.571 321.79 919.241 286.842 1036.57 149.263C1068.24 50.8487 1097.92 7.10599 1219.3 10.1481C1338.37 27.8322 1372.3 108.691 1443.3 149.263C1514.3 189.835 1497.53 284.838 1475.13 294.858C1452.73 304.879 1443.3 294.858 1443.3 294.858M444.033 578.384C403.598 657.375 444.033 708.734 444.033 831.339C444.033 953.945 421.502 957.36 450.079 957.36C478.655 957.36 444.033 957.36 535.691 957.36C648.717 957.36 660.056 955.494 640.462 936.771M640.462 578.384C655.176 623.488 651.664 665.39 640.462 702.224M640.462 702.224C624.68 754.121 588.59 801.527 576.801 867.184C576.801 886.408 621.226 918.389 640.462 936.771M640.462 702.224C657.107 702.831 693.413 707.372 708.255 708.651M1098.72 516.869C929.912 687.47 894.001 696.999 708.255 708.651M1072.08 422.497C1056.86 568.622 1180.04 522.197 1195.37 522.197C1210.7 522.197 1187 567.724 1190.04 580.799C1191.2 585.745 1204.11 582.825 1219.72 576.452C1245.38 565.98 1278.33 546.185 1278.33 536.657C1278.33 521.331 1276.42 493.65 1235.71 481.86C1194.99 470.071 1137 481.86 1137.53 471.205M1129.92 412.603C1130.68 420.975 1137.53 443.807 1137.53 471.205M1137.53 471.205C1168.73 389.01 1179.22 360.287 1179.22 281.301C1179.22 281.301 1377.81 333.172 1412 333.172C1446.19 333.172 1472.77 304.978 1443.3 294.858M1443.3 294.858L1203.98 199.957M708.255 708.651C669.199 800.337 643.735 877.425 682.652 877.425C721.568 877.425 773.868 931.597 741.848 936.771C709.829 941.945 682.456 936.771 640.462 936.771" stroke="white" stroke-width="20"/>
<path d="M1303.02 154.814C1303.02 162.443 1297.87 168.627 1291.51 168.627C1285.15 168.627 1280 162.443 1280 154.814C1280 147.185 1285.15 141 1291.51 141C1297.87 141 1303.02 147.185 1303.02 154.814Z" fill="white"/>
<defs>
<filter id="filter0_d_351_438" x="421" y="960.792" width="258.608" height="303.204" filterUnits="userSpaceOnUse" color-interpolation-filters="sRGB">
<feFlood flood-opacity="0" result="BackgroundImageFix"/>
<feColorMatrix in="SourceAlpha" type="matrix" values="0 0 0 0 0 0 0 0 0 0 0 0 0 0 0 0 0 0 127 0" result="hardAlpha"/>
<feOffset dx="26.233" dy="-17.4887"/>
<feGaussianBlur stdDeviation="1.74887"/>
<feComposite in2="hardAlpha" operator="out"/>
<feColorMatrix type="matrix" values="0 0 0 0 0.294118 0 0 0 0 0.733333 0 0 0 0 0.294118 0 0 0 0.4 0"/>
<feBlend mode="normal" in2="BackgroundImageFix" result="effect1_dropShadow_351_438"/>
<feBlend mode="normal" in="SourceGraphic" in2="effect1_dropShadow_351_438" result="shape"/>
</filter>
<filter id="filter1_d_351_438" x="1124" y="943.014" width="218.608" height="300.805" filterUnits="userSpaceOnUse" color-interpolation-filters="sRGB">
<feFlood flood-opacity="0" result="BackgroundImageFix"/>
<feColorMatrix in="SourceAlpha" type="matrix" values="0 0 0 0 0 0 0 0 0 0 0 0 0 0 0 0 0 0 127 0" result="hardAlpha"/>
<feOffset dx="26.233" dy="-17.4887"/>
<feGaussianBlur stdDeviation="1.74887"/>
<feComposite in2="hardAlpha" operator="out"/>
<feColorMatrix type="matrix" values="0 0 0 0 0.92549 0 0 0 0 0.247059 0 0 0 0 0.247059 0 0 0 0.4 0"/>
<feBlend mode="normal" in2="BackgroundImageFix" result="effect1_dropShadow_351_438"/>
<feBlend mode="normal" in="SourceGraphic" in2="effect1_dropShadow_351_438" result="shape"/>
</filter>
<filter id="filter2_d_351_438" x="1574" y="240.014" width="218.608" height="1003.85" filterUnits="userSpaceOnUse" color-interpolation-filters="sRGB">
<feFlood flood-opacity="0" result="BackgroundImageFix"/>
<feColorMatrix in="SourceAlpha" type="matrix" values="0 0 0 0 0 0 0 0 0 0 0 0 0 0 0 0 0 0 127 0" result="hardAlpha"/>
<feOffset dx="26.233" dy="-17.4887"/>
<feGaussianBlur stdDeviation="1.74887"/>
<feComposite in2="hardAlpha" operator="out"/>
<feColorMatrix type="matrix" values="0 0 0 0 0.294118 0 0 0 0 0.733333 0 0 0 0 0.294118 0 0 0 0.4 0"/>
<feBlend mode="normal" in2="BackgroundImageFix" result="effect1_dropShadow_351_438"/>
<feBlend mode="normal" in="SourceGraphic" in2="effect1_dropShadow_351_438" result="shape"/>
</filter>
<filter id="filter3_d_351_438" x="1349" y="790.014" width="218.608" height="453.831" filterUnits="userSpaceOnUse" color-interpolation-filters="sRGB">
<feFlood flood-opacity="0" result="BackgroundImageFix"/>
<feColorMatrix in="SourceAlpha" type="matrix" values="0 0 0 0 0 0 0 0 0 0 0 0 0 0 0 0 0 0 127 0" result="hardAlpha"/>
<feOffset dx="26.233" dy="-17.4887"/>
<feGaussianBlur stdDeviation="1.74887"/>
<feComposite in2="hardAlpha" operator="out"/>
<feColorMatrix type="matrix" values="0 0 0 0 0.294118 0 0 0 0 0.733333 0 0 0 0 0.294118 0 0 0 0.4 0"/>
<feBlend mode="normal" in2="BackgroundImageFix" result="effect1_dropShadow_351_438"/>
<feBlend mode="normal" in="SourceGraphic" in2="effect1_dropShadow_351_438" result="shape"/>
</filter>
<filter id="filter4_d_351_438" x="898.329" y="890.731" width="218.608" height="353.271" filterUnits="userSpaceOnUse" color-interpolation-filters="sRGB">
<feFlood flood-opacity="0" result="BackgroundImageFix"/>
<feColorMatrix in="SourceAlpha" type="matrix" values="0 0 0 0 0 0 0 0 0 0 0 0 0 0 0 0 0 0 127 0" result="hardAlpha"/>
<feOffset dx="26.233" dy="-17.4887"/>
<feGaussianBlur stdDeviation="1.74887"/>
<feComposite in2="hardAlpha" operator="out"/>
<feColorMatrix type="matrix" values="0 0 0 0 0.294118 0 0 0 0 0.733333 0 0 0 0 0.294118 0 0 0 0.4 0"/>
<feBlend mode="normal" in2="BackgroundImageFix" result="effect1_dropShadow_351_438"/>
<feBlend mode="normal" in="SourceGraphic" in2="effect1_dropShadow_351_438" result="shape"/>
</filter>
<filter id="filter5_d_351_438" x="673" y="1055.01" width="218.608" height="188.877" filterUnits="userSpaceOnUse" color-interpolation-filters="sRGB">
<feFlood flood-opacity="0" result="BackgroundImageFix"/>
<feColorMatrix in="SourceAlpha" type="matrix" values="0 0 0 0 0 0 0 0 0 0 0 0 0 0 0 0 0 0 127 0" result="hardAlpha"/>
<feOffset dx="26.233" dy="-17.4887"/>
<feGaussianBlur stdDeviation="1.74887"/>
<feComposite in2="hardAlpha" operator="out"/>
<feColorMatrix type="matrix" values="0 0 0 0 0.92549 0 0 0 0 0.247059 0 0 0 0 0.247059 0 0 0 0.4 0"/>
<feBlend mode="normal" in2="BackgroundImageFix" result="effect1_dropShadow_351_438"/>
<feBlend mode="normal" in="SourceGraphic" in2="effect1_dropShadow_351_438" result="shape"/>
</filter>
</defs>
</svg>
